<svg width="7" height="4" viewBox="0 0 7 4" fill="none" xmlns="http://www.w3.org/2000/svg">
<rect x="4" y="1" width="1" height="1" transform="rotate(-180 4 1)" fill="black"/>
<rect x="3" y="2" width="1" height="1" transform="rotate(-180 3 2)" fill="black"/>
<rect x="4" y="2" width="1" height="1" transform="rotate(-180 4 2)" fill="black"/>
<rect x="5" y="2" width="1" height="1" transform="rotate(-180 5 2)" fill="black"/>
<rect x="2" y="3" width="1" height="1" transform="rotate(-180 2 3)" fill="black"/>
<rect x="3" y="3" width="1" height="1" transform="rotate(-180 3 3)" fill="black"/>
<rect x="4" y="3" width="1" height="1" transform="rotate(-180 4 3)" fill="black"/>
<rect x="6" y="3" width="1" height="1" transform="rotate(-180 6 3)" fill="black"/>
<rect x="5" y="3" width="1" height="1" transform="rotate(-180 5 3)" fill="black"/>
<rect x="1" y="4" width="1" height="1" transform="rotate(-180 1 4)" fill="black"/>
<rect x="2" y="4" width="1" height="1" transform="rotate(-180 2 4)" fill="black"/>
<rect x="3" y="4" width="1" height="1" transform="rotate(-180 3 4)" fill="black"/>
<rect x="5" y="4" width="1" height="1" transform="rotate(-180 5 4)" fill="black"/>
<rect x="7" y="4" width="1" height="1" transform="rotate(-180 7 4)" fill="black"/>
<rect x="6" y="4" width="1" height="1" transform="rotate(-180 6 4)" fill="black"/>
<rect x="4" y="4" width="1" height="1" transform="rotate(-180 4 4)" fill="black"/>
</svg>
