<?xml version="1.0" standalone="no"?>
<!DOCTYPE svg PUBLIC "-//W3C//DTD SVG 20010904//EN"
 "http://www.w3.org/TR/2001/REC-SVG-20010904/DTD/svg10.dtd">
<svg version="1.0" xmlns="http://www.w3.org/2000/svg"
 width="512.000000pt" height="512.000000pt" viewBox="0 0 512.000000 512.000000"
 preserveAspectRatio="xMidYMid meet">

<g transform="translate(0.000000,512.000000) scale(0.100000,-0.100000)"
fill="#000000" stroke="none">
<path d="M2170 5020 l0 -100 -295 0 -295 0 0 -95 0 -95 -200 0 -200 0 0 -100
0 -100 -195 0 -195 0 0 -100 0 -100 -100 0 -100 0 0 -195 0 -195 -100 0 -100
0 0 -100 0 -100 -95 0 -95 0 0 -295 0 -295 -94 0 -93 0 -5 -312 c-3 -172 -3
-483 0 -690 l5 -378 93 0 94 0 0 -195 0 -195 95 0 95 0 0 -200 0 -200 100 0
100 0 0 -95 0 -95 100 0 100 0 0 -100 0 -100 95 0 95 0 0 -100 0 -100 100 0
100 0 0 -95 0 -95 200 0 200 0 0 -64 0 -63 113 -5 c61 -2 149 -2 195 0 l82 4
0 259 0 259 -295 0 -295 0 0 100 0 100 -100 0 -100 0 0 95 0 95 -100 0 -100 0
0 100 0 100 -95 0 -95 0 0 100 0 100 -100 0 -100 0 0 100 0 100 195 0 195 0 0
-100 0 -100 100 0 100 0 0 -100 0 -100 100 0 100 0 0 -100 0 -100 295 0 295 0
0 200 0 200 -195 0 -195 0 0 100 0 100 -200 0 -200 0 0 195 0 195 -100 0 -100
0 0 590 0 590 100 0 100 0 0 395 0 395 295 0 295 0 0 -100 0 -100 790 0 790 0
0 100 0 100 295 0 295 0 0 -395 0 -395 100 0 100 0 0 -590 0 -590 -100 0 -100
0 0 -195 0 -195 -200 0 -200 0 0 -100 0 -100 -195 0 -195 0 0 -654 0 -654 83
-4 c45 -2 133 -2 195 0 l112 5 0 63 0 64 200 0 200 0 0 95 0 95 100 0 100 0 0
100 0 100 95 0 95 0 0 100 0 100 100 0 100 0 0 95 0 95 100 0 100 0 0 200 0
200 95 0 95 0 0 195 0 195 100 0 100 0 0 690 0 690 -100 0 -100 0 0 295 0 295
-95 0 -95 0 0 100 0 100 -100 0 -100 0 0 195 0 195 -100 0 -100 0 0 100 0 100
-195 0 -195 0 0 100 0 100 -200 0 -200 0 0 95 0 95 -295 0 -295 0 0 100 0 100
-390 0 -390 0 0 -100z"/>
</g>
</svg>
